<?xml version="1.0"?>
<svg width="170" height="170" xmlns="http://www.w3.org/2000/svg" xmlns:svg="http://www.w3.org/2000/svg">
 <g class="layer">
  <title>Layer 1</title>
  <path d="m150.37,130.25c-2.45,5.66 -5.35,10.87 -8.71,15.66c-4.58,6.53 -8.33,11.05 -11.22,13.56c-4.48,4.12 -9.28,6.23 -14.42,6.35c-3.69,0 -8.14,-1.05 -13.32,-3.18c-5.197,-2.12 -9.973,-3.17 -14.34,-3.17c-4.58,0 -9.492,1.05 -14.746,3.17c-5.262,2.13 -9.5,3.24 -12.742,3.35c-4.93,0.21 -9.842,-1.96 -14.746,-6.52c-3.13,-2.73 -7.045,-7.41 -11.735,-14.04c-5.03,-7.08 -9.168,-15.29 -12.41,-24.65c-3.47,-10.11 -5.21,-19.9 -5.21,-29.378c0,-10.857 2.346,-20.22 7.045,-28.068c3.692,-6.304 8.604,-11.274 14.754,-14.924s12.793,-5.51 19.948,-5.63c3.915,0 9.05,1.21 15.43,3.59c6.36,2.39 10.446,3.6 12.237,3.6c1.34,0 5.877,-1.416 13.57,-4.24c7.275,-2.617 13.415,-3.7 18.445,-3.274c13.63,1.1 23.87,6.473 30.68,16.153c-12.19,7.385 -18.22,17.73 -18.1,31c0.11,10.338 3.86,18.94 11.23,25.77c3.34,3.17 7.07,5.62 11.22,7.36c-0.9,2.61 -1.85,5.11 -2.86,7.51l0,0.001zm-31.26,-123.01c0,8.102 -2.96,15.667 -8.86,22.67c-7.12,8.323 -15.732,13.133 -25.07,12.374c-0.12,-0.972 -0.19,-1.995 -0.19,-3.07c0,-7.778 3.387,-16.102 9.4,-22.908c3.002,-3.446 6.82,-6.31 11.45,-8.597c4.62,-2.253 8.99,-3.498 13.1,-3.71c0.12,1.082 0.17,2.165 0.17,3.24l0,0.001z" fill="#ffffff" id="svg_1"/>
 </g>
</svg>