<?xml version="1.0"?>
<svg width="972" height="264" xmlns="http://www.w3.org/2000/svg" xmlns:svg="http://www.w3.org/2000/svg">
 <g class="layer">
  <title>Layer 1</title>
  <g fill="#000" fill-rule="evenodd" id="svg_1">
   <g fill-rule="nonzero" id="svg_2" stroke-linecap="round" stroke-linejoin="round">
    <path d="m115.5,36.848l0,190.304l137.53,-95.152l-137.53,-95.152zm166.612,105.432l-172,119c-8.29,5.736 -19.612,-0.198 -19.612,-10.28l0,-238c0,-10.082 11.321,-16.016 19.612,-10.28l172,119c7.184,4.97 7.184,15.59 0,20.56z" fill="#ffffff" id="svg_3"/>
    <path d="m42.5,107l107,0a8,8 0 1 0 0,-16l-107,0a8,8 0 1 0 0,16zm0,70l107,0a8,8 0 1 0 0,-16l-107,0a8,8 0 1 0 0,16zm-34.5,-34l168,0a8,8 0 1 0 0,-16l-168,0a8,8 0 1 0 0,16z" fill="#ffffff" id="svg_4"/>
   </g>
   <path d="m356.505,184.362c-7.63,0 -14.335,-0.772 -20.117,-2.316c-5.782,-1.544 -10.202,-3.436 -13.26,-5.676c-3.057,-2.24 -4.586,-4.36 -4.586,-6.357c0,-1.575 0.59,-3.512 1.77,-5.813c1.182,-2.3 2.59,-4.283 4.224,-5.95c1.635,-1.664 2.997,-2.496 4.087,-2.496c0.666,0 2.09,0.575 4.27,1.725c3.268,1.695 6.37,3.057 9.308,4.086c2.937,1.03 6.313,1.544 10.127,1.544c4.238,0 7.826,-0.832 10.762,-2.497c2.936,-1.665 4.404,-4.587 4.404,-8.764c0,-2.423 -0.757,-4.512 -2.27,-6.268c-1.514,-1.756 -3.452,-3.24 -5.813,-4.45c-2.36,-1.21 -5.57,-2.634 -9.626,-4.27l-7.175,-3.087c-4.36,-2.12 -8.1,-4.45 -11.217,-6.993c-3.118,-2.543 -5.66,-5.903 -7.63,-10.08c-1.967,-4.18 -2.95,-9.295 -2.95,-15.35c0,-7.386 1.816,-13.532 5.45,-18.436c3.632,-4.904 8.354,-8.507 14.167,-10.808c5.812,-2.3 12.048,-3.45 18.71,-3.45c5.448,0 10.382,0.56 14.802,1.68c4.42,1.12 7.887,2.557 10.4,4.313c2.512,1.757 3.768,3.513 3.768,5.27c0,1.452 -0.47,3.314 -1.407,5.584c-0.94,2.27 -2.104,4.254 -3.497,5.95c-1.393,1.694 -2.694,2.542 -3.905,2.542c-0.544,0 -1.513,-0.303 -2.905,-0.908a51.939,51.939 0 0 0 -6.767,-2.225c-2.27,-0.575 -5.04,-0.863 -8.31,-0.863c-5.63,0 -9.536,0.893 -11.715,2.68c-2.18,1.785 -3.27,3.89 -3.27,6.31c0,2.786 0.742,5.117 2.225,6.994c1.484,1.877 3.36,3.42 5.63,4.632c2.27,1.21 5.435,2.604 9.492,4.178c6.115,2.603 11.11,5.07 14.985,7.402c3.875,2.33 7.22,5.676 10.036,10.035c2.816,4.36 4.224,9.93 4.224,16.712c0,8.295 -1.74,15.092 -5.222,20.39c-3.482,5.297 -7.962,9.127 -13.442,11.488c-5.48,2.362 -11.398,3.542 -17.755,3.542l-0.002,0zm96.724,0c-9.81,0 -18.21,-1.544 -25.204,-4.632c-6.993,-3.087 -12.337,-7.553 -16.03,-13.396c-3.693,-5.842 -5.54,-12.88 -5.54,-21.115l0,-70.387c0,-1.756 0.787,-3.073 2.36,-3.95c1.576,-0.88 4.028,-1.318 7.358,-1.318l5.45,0c3.33,0 5.766,0.44 7.31,1.317c1.544,0.878 2.316,2.195 2.316,3.95l0,68.752c0,3.754 0.923,7.114 2.77,10.08c1.847,2.968 4.435,5.284 7.765,6.95c3.33,1.664 7.145,2.496 11.444,2.496c4.297,0 8.127,-0.832 11.487,-2.497c3.36,-1.665 5.98,-3.98 7.856,-6.948c1.877,-2.967 2.816,-6.327 2.816,-10.08l0,-68.752c0,-1.756 0.77,-3.073 2.315,-3.95c1.544,-0.88 3.98,-1.318 7.31,-1.318l5.36,0c3.33,0 5.766,0.44 7.31,1.317c1.544,0.878 2.316,2.195 2.316,3.95l0,70.387c0,8.233 -1.846,15.272 -5.54,21.114c-3.692,5.843 -9.036,10.31 -16.03,13.396c-6.992,3.088 -15.393,4.632 -25.2,4.632l0.001,0.002zm78.376,-1.09c-6.478,0 -9.717,-1.695 -9.717,-5.085l0,-101.81c0,-2.24 0.513,-3.86 1.543,-4.86c1.03,-0.998 2.664,-1.497 4.904,-1.497l31.515,0c26.76,0 40.142,10.08 40.142,30.243c0,6.115 -1.71,11.382 -5.13,15.802c-3.422,4.42 -8.01,7.72 -13.76,9.9l0,0.636c1.998,0.848 4.102,2.665 6.312,5.45s3.98,5.933 5.313,9.445l14.257,35.51c0.485,1.454 0.727,2.483 0.727,3.09c0,2.118 -3.21,3.177 -9.627,3.177l-6.63,0c-5.39,0 -8.507,-1.12 -9.354,-3.36l-12.806,-31.515c-1.21,-2.42 -2.377,-4.298 -3.497,-5.63c-1.12,-1.332 -2.68,-2.347 -4.677,-3.043c-1.998,-0.696 -4.692,-1.044 -8.083,-1.044l-6.267,0l0,39.507c0,3.39 -3.24,5.085 -9.717,5.085l-5.45,0l0.002,-0.001zm30.425,-66.026c2.18,0 4.24,-0.62 6.177,-1.862c1.938,-1.24 3.48,-2.92 4.632,-5.04c1.15,-2.12 1.724,-4.45 1.724,-6.993c0,-3.753 -1.226,-6.735 -3.678,-8.945s-5.767,-3.315 -9.945,-3.315l-14.167,0l0,26.156l15.258,0l-0.001,-0.001zm68.116,66.026c-6.478,0 -9.717,-1.695 -9.717,-5.085l0,-101.81c0,-2.24 0.513,-3.86 1.543,-4.86c1.03,-0.998 2.664,-1.497 4.904,-1.497l53.947,0c1.696,0 2.922,0.635 3.678,1.907c0.757,1.27 1.136,3.33 1.136,6.176l0,4.904c0,2.846 -0.38,4.904 -1.136,6.176c-0.756,1.27 -1.982,1.907 -3.678,1.907l-35.51,0l0,23.613l34.33,0c1.695,0 2.936,0.636 3.723,1.907c0.787,1.272 1.18,3.3 1.18,6.085l0,4.995c0,2.846 -0.393,4.92 -1.18,6.222c-0.787,1.3 -2.028,1.952 -3.723,1.952l-34.33,0l0,42.323c0,3.39 -3.24,5.085 -9.718,5.085l-5.45,0l0.001,0zm70.205,0c-6.6,0 -9.9,-1.18 -9.9,-3.542c0,-0.666 0.213,-1.634 0.637,-2.906l35.6,-103.807c0.85,-2.3 3.907,-3.452 9.174,-3.452l8.357,0c5.267,0 8.325,1.15 9.173,3.452l35.6,103.807c0.304,1.21 0.455,2.18 0.455,2.906c0,1.21 -0.65,2.104 -1.952,2.68c-1.302,0.575 -3.346,0.862 -6.13,0.862l-7.085,0c-2.543,0 -4.586,-0.257 -6.13,-0.772c-1.544,-0.514 -2.498,-1.377 -2.86,-2.588l-6.54,-19.708l-38.054,0l-6.54,19.708c-0.665,2.24 -3.147,3.36 -7.446,3.36l-6.359,0zm51.496,-44.41l-9.173,-28.7c-0.545,-1.453 -1.014,-3.118 -1.408,-4.995a182.088,182.088 0 0 1 -1.044,-5.358l-0.635,0l-0.363,1.997c-0.606,3.572 -1.302,6.357 -2.09,8.355l-9.535,28.7l24.25,0l-0.002,0.001zm97.995,45.5c-18.163,0 -31.56,-4.722 -40.187,-14.168c-8.628,-9.445 -12.942,-24.127 -12.942,-44.048c0,-38.326 17.983,-57.49 53.948,-57.49c4.905,0 9.99,0.486 15.258,1.454c5.268,0.97 9.672,2.316 13.214,4.042c3.542,1.725 5.313,3.648 5.313,5.767c0,1.513 -0.605,3.496 -1.816,5.948c-1.21,2.452 -2.65,4.616 -4.314,6.493c-1.665,1.878 -3.133,2.817 -4.405,2.817c-0.303,0 -1.12,-0.303 -2.452,-0.908a67.092,67.092 0 0 0 -9.127,-3.044c-3.18,-0.817 -7.222,-1.226 -12.126,-1.226c-9.506,0 -16.544,3.012 -21.116,9.037c-4.57,6.024 -6.857,15.12 -6.857,27.29s2.302,21.344 6.904,27.52c4.6,6.175 11.504,9.263 20.707,9.263c4.784,0 8.947,-0.484 12.49,-1.453c3.54,-0.97 7.007,-2.21 10.398,-3.723c0.18,-0.06 0.726,-0.288 1.634,-0.682c0.91,-0.393 1.575,-0.59 1.998,-0.59c1.575,0 3.088,0.923 4.54,2.77c1.454,1.847 2.635,3.936 3.543,6.267c0.91,2.33 1.363,4.01 1.363,5.04c0,2.966 -1.983,5.48 -5.95,7.537c-3.965,2.06 -8.748,3.588 -14.35,4.587c-5.6,1 -10.82,1.498 -15.665,1.498l-0.003,0.002zm57.218,-1.362c-2.24,0 -3.875,-0.515 -4.905,-1.544c-1.03,-1.03 -1.544,-2.664 -1.544,-4.904l0,-100.175c0,-2.24 0.514,-3.86 1.543,-4.86c1.03,-0.998 2.664,-1.497 4.905,-1.497l59.124,0c1.695,0 2.92,0.635 3.678,1.907c0.757,1.27 1.135,3.33 1.135,6.176l0,4.904c0,2.846 -0.378,4.904 -1.135,6.176c-0.757,1.27 -1.983,1.907 -3.678,1.907l-40.688,0l0,23.43l36.328,0c1.696,0 2.922,0.637 3.678,1.91c0.757,1.27 1.136,3.33 1.136,6.174l0,4.996c0,2.845 -0.38,4.904 -1.136,6.175c-0.756,1.272 -1.982,1.908 -3.678,1.908l-36.328,0l0,26.156l40.778,0c1.696,0 2.922,0.635 3.68,1.906c0.756,1.272 1.134,3.3 1.134,6.085l0,5.087c0,2.846 -0.378,4.904 -1.135,6.176c-0.756,1.27 -1.982,1.907 -3.678,1.907l-59.214,0z" fill="#ffffff" fill-rule="nonzero" id="svg_5"/>
  </g>
 </g>
</svg>